<svg viewBox="0 0 460 107" fill="none" xmlns="http://www.w3.org/2000/svg"><path fill-rule="evenodd" clip-rule="evenodd" d="M63.042 5.976c0 .054.11.167.166.167.053.199.155.33.259.463.146.188.298.382.323.783-.151.145-.214.441-.275.731-.04.19-.08.376-.142.516-.028 0-.166.331-.166.415-.055.029-.417 1.027-.417 1.082-.026 0-.248.527-.248.583-.028 0-.25.498-.25.581-.03 0-.417.693-.417.749-.027 0-.387.636-.415.747-.083.057-.498.472-.498.5-.194.027-.582.139-.582.168-.167 0-.5.054-.5.083-.324.102-1.271.185-1.58.083-.107-.036-.205-.09-.305-.144-.136-.074-.274-.15-.443-.188 0-.056-.11-.167-.167-.167-.068-.293-.444-.804-.498-.832-.056-.165-.278-.553-.334-.582 0-.11-.221-.665-.25-.665-.027-.22-.221-.83-.25-.83l.082-1.082c.028 0 .167-.387.167-.499.028 0 .166-.389.166-.499.036-.097.083-.197.131-.3.08-.168.163-.345.203-.532.055 0 .498-.608.498-.665.084-.054.25-.277.25-.334.292-.262.569-.54.831-.83.112-.028.832-.389.832-.418.167-.026.916-.22.916-.249.034 0 .086.003.143.006.126.006.273.013.273-.006l.998.084c.028.054.25.164.332.164.057.084.777.582.832.582 0 .011.024.031.064.064.062.053.162.137.27.27zm27.274 21.366c0 .057.214.34.5.417.047.185.22.331.25.331 0 .056.22.583.25.583.026.194.138.582.165.582.107.336.026 1.014-.034 1.518a7.658 7.658 0 00-.049.477c-.164.139-.554.527-.58.583-.056 0-.277.167-.333.248-.167.054-.803.443-.832.5-.082 0-.498.138-.498.166h-.583c0-.027-.248-.027-.248 0l-.727-.06-.27-.023c0-.027-.111-.081-.167-.081-.056-.084-.666-.501-.75-.501-.11-.138-.498-.47-.581-.498 0-.055-.22-.333-.333-.415 0-.055-.143-.328-.248-.416-.022-1.017.264-2.149.665-2.744.138-.11.417-.445.417-.5.055-.027.387-.36.499-.498.054 0 .332-.14.332-.166.082 0 .416-.14.416-.167h1.247c0 .027.166.084.25.084 0 .027.444.165.5.165 0 .028.166.084.247.084.023.054.32.29.495.33zm69.932 60.444l-1.414-4.49-.166-.58a15.846 15.846 0 00-.35.057l-.054.01-.097.015c0 .027-.777.25-.829.25 0 .014-.08.047-.161.08-.085.035-.172.072-.172.086-.111 0-.582.138-.582.166-.223.028-.664.138-.664.167a1.993 1.993 0 01-.365.093c-.096.018-.193.036-.304.073 0 .029-1.107.168-1.162.168 0 .026-.555.026-.832 0 0 .026-.555.05-.748 0 0-.028-.721-.083-1.082-.083 0-.026-.61-.084-.915-.084-.523-.149-1.097-.178-1.669-.208-.572-.029-1.143-.058-1.658-.207-.127 0-.474-.017-.85-.036h-.001c-.446-.022-.933-.046-1.144-.046 0-.028-.61-.084-.912-.084 0-.025-1.278-.164-1.583-.164 0-.028-4.158-.444-4.158-.417-.069 0-.28-.015-.527-.031-.35-.024-.773-.053-.968-.053 0-.028-.5-.082-.748-.082 0-.028-2.329-.25-2.411-.25 0-.013-.107-.027-.212-.042-.103-.014-.204-.027-.204-.04-.308 0-.915-.055-.915-.083-.307 0-.914-.055-.914-.08-.361 0-1.082-.059-1.082-.085l-2.496-.25.581-11.473c.052-.302.094-1.143 0-1.248v-.081c-.359.055-1.08.221-1.08.248l-5.323 1.082a7.405 7.405 0 00-.444.09c-.178.04-.344.077-.385.077 0-.027-.333-.36-.501-.5 0-.054-.277-.387-.413-.497 0-.055-.39-.499-.583-.666 0-.055-.114-.222-.168-.249a2.816 2.816 0 00-.255-.256c-.108-.102-.216-.203-.244-.243a3.584 3.584 0 00-.748-.582c0-.054-1.108-.83-1.164-.83a.483.483 0 00-.248-.168c-.057-.083-.501-.306-.667-.332 0-.03-.222-.14-.332-.166 0-.028-.47-.222-.583-.25 0-.028-.166-.084-.248-.084a89.644 89.644 0 00-.56-.186l-.004-.001-.184-.062c-.005-1.909-.721-6.732-.749-6.732 0-.113-.304-1.333-.332-1.333-.028-.193-.387-1.412-.416-1.412-.028-.112-.471-1.247-.498-1.247 0-.055-.638-1.332-.664-1.332 0-.053-.473-.998-.501-.998-.025-.083-.721-1.246-.746-1.246-.028-.084-1.028-1.552-1.167-1.663-.176-.252-.914-1.275-.996-1.329 0-.054-1.219-1.413-1.249-1.413-.026-.083-.527-.583-.581-.583-.304-.332-1.69-1.58-1.747-1.58-.054-.082-1.273-.997-1.328-.997-.084-.11-1.385-.969-1.499-.998-.025-.054-1.94-1.163-1.995-1.163 0-.028-2.243-1.08-2.326-1.08 0-.029-.638-.307-.749-.333 0-.028-1.747-.666-1.83-.666 0-.027-.805-.304-.915-.333 0-.015-.6-.191-1.26-.385-.568-.166-1.178-.346-1.483-.445-.098 0-.395-.057-.642-.104a4.37 4.37 0 00-.357-.063c0-.027-.334-.083-.5-.083 0-.028-1.11-.25-1.248-.25 0-.027-.858-.166-.915-.166 0-.028-.83-.083-1.247-.083 0-.028-1.08-.112-1.08-.084-.037 0-.084-.003-.13-.006-.101-.006-.202-.013-.202.006-.36 0-1.082.055-1.082.084-.111.026-.331.138-.331.166-.113 0-.582.14-.582.166-.14 0-.417.054-.417.084H82c0-.028-.827-.002-.832 0h-1.33c0 .027-.804.083-.998.083 0 .027-.997.167-1.164.167 0 .014-.446.113-.888.21-.432.097-.859.192-.859.205-.056 0-1.413.389-1.413.416-.032 0-.272.141-.472.26-.143.084-.265.157-.277.157-.171.201-.6.672-.732.817l-.014.015c-.013 0-.165.175-.329.364-.18.21-.377.437-.42.465-.083.113-.942 1.082-.998 1.082-.028.084-.387.582-.415.582 0 .054-.999 1.358-1.082 1.413 0 .056-.998 1.276-1.08 1.332 0 .054-.277.554-.334.581-.091.1-.322.404-.53.677-.196.258-.37.487-.383.487 0 .054-.583.86-.665.915 0 .054-.527.804-.584.83-.026.11-.441.666-.498.666-.05.24-.527.887-.58.915-.03.11-.444.803-.5.832-.028.083-.638.996-.75 1.08 0 .083-.275.555-.332.581 0 .084-.444.887-.498.916-.027.138-.778 1.551-.832 1.579 0 .082-.39.914-.416.914 0 .14-.111.473-.167.498-.028.196-.471 1.415-.5 1.415-.027.138-.22.58-.25.58-.026.195-.278.806-.332.832l-.25 1.082h-.083v.081H59.8v-.08a.836.836 0 01-.29-.352c-.016-.034-.026-.056-.044-.066 0-.055-.14-.331-.167-.331 0-.083-.056-.25-.083-.25 0-.082-.389-.916-.415-.916-.03-.11-.277-.72-.334-.747-.028-.111-.303-.664-.332-.664 0-.084-.389-.832-.416-.832 0-.056-.444-.886-.5-.915 0-.056-.665-.94-.748-.996 0-.056-.554-.749-.663-.832 0-.057-.445-.639-.584-.75-.028-.11-.305-.5-.415-.582 0-.056-.332-.527-.417-.581 0-.055-.527-.75-.581-.75-.046-.188-.222-.33-.25-.33-.152-.258-.471-.665-.5-.665-.028-.085-.415-.61-.5-.668 0-.054-.553-.912-.58-.912l.082-.749 7.734-25.275c0-.083.01-.13.021-.178a.721.721 0 00.022-.179c.014 0 .017-.036.02-.072.003-.035.006-.07.02-.07-.025-.458-.175-.524-.499-.664-.041 0-.063-.025-.085-.05-.022-.024-.044-.049-.085-.049-.014-.027-.048-.03-.081-.034-.034-.004-.067-.007-.081-.034l-7.567-3.075c0-.027-.112-.082-.167-.082 0-.03-.278-.14-.417-.169L40.17 11.805c-.027-.054-.554-.304-.665-.331 0-.028-.637-.305-.747-.333 0-.029-.362-.166-.417-.166 0-.027-.993-.332-1-.332l-.747-.083c0-.028-1.609-.167-1.83-.167 0-.027-.942-.14-1.414-.166 0-.028-.942-.167-1.08-.167 0 0-.582-.083-.75-.083 0-.028-.913-.167-1.079-.167 0-.027-1.109-.248-1.248-.248 0-.029-1.248-.25-1.331-.25 0-.028-.72-.138-1.082-.167 0-.027-.831-.25-.916-.25 0-.027-.914-.248-1.08-.248 0-.027-1.026-.334-1.08-.334 0-.027-1.276-.415-1.332-.415 0-.026-1.109-.416-1.247-.416 0-.027-.166-.082-.25-.082-.028-.055-.97-.388-1.164-.416-.027-.054-.803-.388-.914-.417 0-.027-.222-.138-.334-.164-.027-.056-.97-.472-1.08-.501 0-.027-.775-.415-.832-.415-.013-.025-.148-.119-.293-.22-.165-.113-.342-.236-.372-.28-.054 0-.886-.442-.914-.499-.111-.026-.722-.443-.75-.498-.083-.028-.775-.498-.83-.581l-.107-.076c-.262-.187-.643-.459-.643-.506a1.58 1.58 0 01-.414-.332c-.056 0-.417-.138-.417-.166-.055 0-1.082-.388-1.082-.415-.11-.029-.83-.307-.83-.334-.113-.027-1-.388-1-.417-.166-.025-.97-.359-.997-.415C7.708.721 6.598.305 6.569.25L5.74 0c-.031.042-.033.05-.033.05-.002 0-.008.001-.05.033l.083 1.33c.01 0 .006.017 0 .047-.012.055-.033.157 0 .287.026 0 .082.72.082 1.08.028 0 .083.554.083.832.01 0 .006.03 0 .078a.889.889 0 000 .337c.028 0 .167.72.167.832.028 0 .084.164.084.249.01.015.077.077.16.153.146.134.338.31.338.345.111.083.334.361.334.417l.832.749c0 .054.165.276.249.33 0 .056.293.38.498.5 0 .056 1.228 1.433 1.498 1.496 0 .056.164.222.248.25.112.138.72.748.748.748.073.087.23.235.362.36.12.114.22.209.22.222.143.118.996.887.996.913.057 0 .224.113.25.167.057 0 .556.444.75.665.11.028.498.306.58.417.055 0 .833.554.833.582.083.028.659.409.832.665.083 0 .581.387.581.416.056 0 .527.331.582.415.057 0 .722.363.75.417.054 0 .72.444.747.5.054 0 .665.332.665.332.057 0 1.136.61 1.164.665.056 0 .83.387.83.413.058 0 .666.306.666.333.083 0 1.249.61 1.249.667.25.056.748.223.748.25.084 0 .887.36.913.414.167.028.501.14.501.167.056 0 .832.305.832.331.249.057.747.224.747.25.084 0 .665.223.665.251.39.084 1.166.305 1.166.331.055 0 .5.14.5.167.083 0 .97.278.996.333.333.026 1.164.22 1.164.249.25.028.75.138.75.167.054 0 1.08.222 1.08.25.083 0 .748.139.748.166.054 0 .167.056.167.083l.063.02c.062.021.125.042.187.065v.33c-.181.052-.248.108-.35.195l-.067.055c0 .028-.5.25-.748.331-.027.084-.36.306-.499.333-.026.057-.498.334-.581.334 0 .026-.942.5-1 .5 0 .026-.663.332-.749.332 0 .026-1.19.581-1.246.581 0 .027-1.44.582-1.497.582 0 .026-.47.221-.582.249 0 .028-1.191.415-1.247.415 0 .027-1.053.388-1.246.417 0 .028-1.082.332-1.166.332-.026.055-1.413.415-1.497.415 0 .028-.498.166-.581.166 0 .015-.087.03-.171.044-.081.014-.16.027-.16.04-.026 0-.13.017-.245.035-.14.022-.293.046-.339.046 0 .028-.637.167-.748.167 0 .028-.665.167-.749.167 0 .03-.692.167-.748.167 0 .027-.5.082-.748.082 0 .028-.333.082-.501.082 0 .03-.387.084-.582.084 0 .028-1.109.195-1.163.167 0 0-.527.083-.665.083 0 .028-.694.082-.832.082 0 .014-.25.049-.5.083-.249.035-.499.07-.499.083-.387 0-1.163.055-1.163.085H8.6c-.794.004-1.704.008-2.113-.085l-2.329-.08c0-.029-.333-.084-.5-.084 0-.028-.498-.083-.748-.083 0-.026-.276-.083-.415-.083 0-.028-1.123-.118-1.332-.083-.024.503-.18.85-.336 1.198-.056.125-.112.25-.162.382 0 .138-.057.415-.083.415 0 .11-.14.581-.167.581 0 .11-.305 1-.332 1l-.041.372c-.014.125-.027.25-.042.373.293.06.54.173.777.283.101.047.201.093.303.134.167.027.5.14.5.166.055 0 .915.224.915.25.083 0 .665.221.665.25.333.055.998.222.998.25.081 0 .25.055.25.083.055 0 .581.137.581.165.111 0 .583.137.583.166.083 0 .249.057.249.084.195 0 .999.221.999.249l2.827.5c.026.054.72.22.914.248 0-.027.416.057.416.085.196 0 1.498.22 1.498.25.248 0 .914.138.914.164.83.056 2.494.223 2.494.25.276 0 .831.057.831.083.277 0 .831.055.831.084.278 0 .833.055.833.083.107.02.328.009.502 0 .137-.007.245-.012.245 0h1.415c.142.028 2.345.1 2.744 0 0-.028 1.248-.083 1.58-.083 0-.028.415-.028.498 0 0-.028.5-.084.749-.084 0-.026.664-.083.997-.083 0-.027.501-.081.749-.081 0-.028.5-.085.665-.085 0-.026.722-.165.832-.165 0-.027.331-.083.498-.083.207-.064.456-.114.703-.165a7.04 7.04 0 00.71-.168c.5-.084 1.498-.304 1.498-.332.054 0 1.302-.277 1.33-.333.194-.028.581-.138.581-.165.057 0 .167-.056.167-.083.138 0 .582-.138.582-.167.194-.03.832-.223.832-.25.083 0 .25-.055.25-.081.11 0 .582-.224.582-.25.11 0 .332-.058.332-.084.055 0 .665-.222.665-.25.057 0 .555-.193.582-.25.111 0 .332-.054.332-.08.055 0 .832-.389.832-.418.084 0 .582-.222.582-.249.054 0 .388-.196.415-.25.11 0 .555-.194.582-.25.138-.027.805-.36.831-.416.084 0 .555-.277.583-.333.056 0 .5-.222.5-.249.054 0 .664-.305.664-.331.055 0 .472-.278.499-.334l.5.083-.083.498-5.489 29.1-.083.916c-.028 0-.167.359-.167.415-.029 0-.14.498-.167.748-.027.013-.11.103-.197.197-.087.094-.176.191-.218.22 0 .056-.166.276-.25.332-.258.365-.86 1.163-.915 1.163-.05.03-.15.18-.25.332-.098.146-.195.292-.25.334 0 .054-.387.58-.498.663-.028.112-.304.5-.415.584 0 .055-.471.665-.582.747 0 .028-.27.41-.54.79-.27.382-.54.764-.54.792-.056.025-.417.527-.417.579-.11.085-.332.418-.332.5-.167.137-.498.528-.498.58-.057.029-.167.194-.167.25-.138.111-.417.444-.417.5-.054.025-.415.472-.498.58-.054 0-.5.472-.5.5-.051 0-.691.597-1.162 1.037-.273.256-.49.458-.5.458-.028.056-.444.416-.498.416-.14.168-.472.5-.5.5 0 .036-.264.313-.508.569-.126.133-.248.26-.324.344-.056.028-.665.611-.665.667-.027 0-.724.666-.832.915-.045 0-.39.365-.618.607l-.131.139c-.055.028-.25.307-.25.332a7.37 7.37 0 01-.118.098c-.216.179-.542.447-.631.651-.054 0-.415.264-.498.582-.065 0-.353.316-.576.56l-.173.188c-.055.028-.72.778-.83.914a1.21 1.21 0 00-.163.163c-.071.078-.143.156-.171.17-.219.23-.884 1.139-1.082 1.413-.089.075-.308.327-.5.548-.163.188-.306.354-.332.366-.138.195-1.275 1.58-1.33 1.58-.074.342-.608.888-.665.916 0 .056-.11.223-.165.25 0 .054-.167.276-.25.332-.01.027-.113.168-.25.356h-.001c-.28.381-.698.952-.748 1.138-.217.052-.36.155-.505.258-.077.055-.155.111-.245.16-.11.026-.385.194-.414.25l-.307.102-.003.001-.69.228c-.278.116-1.994.971-1.994.999-.11.025-.83.305-.83.33-.112.027-.667.222-.667.25-.11.027-.998.388-.998.416l-7.318 2.994c-.026.053-.193.167-.249.167-.19.106-.545.324-.665.498-.015 0 .1.13.212.257.096.108.19.216.204.241l17.71 9.563h.417c0-.013.16-.224.348-.47.259-.34.567-.746.567-.778.055-.028 22.867-30.929 22.867-30.929 0-.055.278-.387.417-.498 0-.057.387-.581.415-.581l2.91-11.89.498-1.745a.533.533 0 01.113-.027c.008-.003.011-.014.054-.056.315.036.402.18.503.351.045.075.092.154.162.231L51.8 61.94c.029.013.088.08.143.143.049.056.094.107.107.107v.665c.027 0 .25.971.25 1.163.026 0 .166.749.166 1 .028 0 .082.385.082.58.03 0 .166.553.166.666.014 0 .071.382.128.76.055.37.11.736.122.736 0 .249.055.747.084.747 0 .25.057.75.083.75 0 .36.055 1.08.084 1.08.026.359.054.721.083 1.082-.02.06-.011.302-.005.487.003.074.005.138.005.178.027 0 .081.776.081 1.163.11.375.122.733.133 1.085.011.335.022.664.117.995v1.33c.028 0 0 .083 0 .083l.014.112c.029.226.091.716.07.803.028 0 .083.942.083 1.413.028 0 .138 1.274.165 1.914.028 0 .084.386.084.58.027 0 .167.554.167.664.027 0 .138.223.165.334.055.026.472.636.499.747.138.111.472.5.5.582.055 0 .499.527.499.581.138.11.415.444.415.499.027 0 .25.223.333.332.055 0 2.207 2.123 2.495 2.411.075.09.24.246.374.373.114.108.207.196.207.208.21.176 1.357 1.249 1.412 1.332l.748.664c0 .057.388.416.417.416.068.08.063.12.06.146-.005.036-.006.047.19.104.096.556.04.721-.078 1.062a8.994 8.994 0 00-.088.268c0 .166-.14.832-.167.832 0 .138-.305 1.496-.334 1.496l-.166 1.913c-.013 0-.068.244-.122.49-.057.252-.113.506-.128.506 0 .111-.138.916-.167.916 0 0-.055.914-.082.914 0 .054-.14.913-.167.913 0 .364-.056 1.083-.082 1.083 0 .358-.056 1.079-.084 1.079 0 .112-.054.335-.083.335 0 .331-.054 1.246-.083 1.246 0 .277-.055.831-.084.831-.042.146-.027.313-.014.474.018.206.034.401-.068.525V107a3.25 3.25 0 00.33-.221c.203-.148.411-.301.669-.361 0-.054.27-.298.416-.416 0-.012.07-.078.148-.148.081-.075.17-.156.184-.185.24-.165.749-.526.749-.582.038 0 .444-.309.704-.507.105-.08.186-.142.21-.158.007-.015.075-.061.176-.129.277-.185.798-.536.99-.867.037 0 .114-.052.234-.131.052-.035.112-.075.18-.118 0-.028.61-.5.665-.5.03-.081.417-.358.584-.415 0-.055.277-.332.332-.332a7.82 7.82 0 01.272-.297c.188-.2.393-.418.393-.453.054-.026.471-.719.498-.83.083-.057.25-.333.25-.416.084-.057.472-.638.5-.748.082-.055.25-.278.25-.333l.167-.083c.026-.08.414-.193.58-.165 0 .027.285.338.573.653.294.323.591.648.591.677.083.026.25.192.25.25.055.025.582.526.582.582.25.221.749.776.749.83a25.897 25.897 0 011.249 1.247c.027 0 .415.444.415.498.11.084.534.52.665.668.026 0 .138.165.167.248.055 0 .275.165.33.25h.251c.056-.085.277-.25.332-.25l.415-.499 9.23-8.065c.057 0 .167-.167.167-.249a15.778 15.778 0 01-.218-.096 5.007 5.007 0 00-.364-.153c-.139 0-.832-.222-.832-.25-.058 0-1.622-.617-3.078-1.193h-.001c-1.267-.501-2.452-.97-2.491-.97-.027-.054-.36-.22-.5-.247 0-.028-1.359-.749-1.413-.749 0-.025-.527-.331-.582-.331 0 0-1.082-.638-1.164-.665 0-.028-1.135-.722-1.247-.75-.026-.055-.777-.581-.832-.581-.028-.056-.56-.453-.748-.498 0-.056-.942-.749-.996-.749-.055-.081-.556-.498-.666-.582a1.134 1.134 0 00-.063-.26.31.31 0 01-.02-.07c.01 0 .015-.15.02-.342.008-.3.02-.705.063-.823.027 0 .553-.832.582-.914.084-.056 1.192-1.664 1.247-1.831.055-.027.471-.637.498-.747.104-.094.19-.207.25-.333.111-.083.639-.885.665-.998.112-.082.443-.581.5-.747.054-.028.83-1.109.83-1.163.056-.028.555-.861.582-.999.111-.082.442-.581.5-.747.055-.028.47-.637.499-.747.054-.028.999-1.582.999-1.665.011 0 .134-.211.272-.446.17-.29.361-.619.392-.634 0-.057.554-1.165.582-1.165 0-.056.47-.997.498-.997.028-.167.555-1.497.582-1.497 0-.056.221-.664.25-.664 0-.06.17-.747.362-1.531v-.001c.173-.706.365-1.488.47-1.96-.028-.057-.028-.168 0-.168 0-.087.045-.614.089-1.116.04-.458.077-.896.077-.963-.027 0-.084-1.469-.084-1.497.003-.033-.002-.16-.01-.327-.018-.418-.048-1.094.01-1.252.525-.093 2.91-.417 3.076-.417.072.036.374.642.418.748 0 .04.072.288.148.554.088.306.183.634.183.693 0 0 3.577 11.004 3.577 11.058.026 0 .25.778.25.832.027 0 .25.61.25.665.028 0 .25.693.25.748.028 0 .498 1.11.498 1.166.029 0 .472 1.134.5 1.246.027 0 .415.942.415.997.027 0 .575 1.205.582 1.58.031 0 .186.283.315.518.092.169.171.313.183.313L97.039 94.7l3.159 9.81c.026 0 .137.11.164.167l11.561-4.074c.04-.027.038-.125.035-.224-.002-.101-.005-.202.038-.23l-2.485-4.535a1.717 1.717 0 00-.083-.135c-.087-.135-.156-.24-.167-.53.085 0 .25-.056.25-.083.333 0 .997-.056.997-.084.181-.047 1.167-.08 1.332-.08 0-.03.499-.084.749-.084 0-.028 1.83-.166 2.078-.166 0-.029 1.304-.168 1.581-.168 0-.012.198-.065.401-.119.213-.056.431-.114.431-.129.111 0 1.665-.555 1.665-.582.109 0 .996-.387.996-.416.109 0 .832-.305.832-.332.054 0 1.053-.445 1.08-.5.084 0 .748-.303.748-.332.085 0 .832-.386.832-.414.055 0 .721-.362.749-.417l1.332-.58c.026-.056 1.051-.638 1.162-.667.028-.055.723-.473.833-.498.028-.056.692-.418.749-.418.025-.055.413-.22.58-.247 0-.014.27-.049.54-.083.27-.035.54-.07.54-.083h.999c0-.03.498-.085.751-.085 0-.028 1.079-.167 1.412-.167 0-.026.666-.137.996-.165 0-.014.235-.071.466-.128.227-.055.451-.11.451-.123.082 0 1.164-.22 1.164-.247.083 0 .914-.138.914-.167.025 0 .345-.067.699-.141.435-.092.919-.193.964-.193 0-.028.387-.081.583-.081 0-.017.431-.065.805-.106.248-.027.47-.051.525-.062 0 0 2.279.001 2.577.083.444 0 1.332.055 1.332.084.278 0 .83.053.83.08.17 0 1.082.14 1.082.169.222 0 1.167.139 1.167.167.193 0 .58.055.58.083.111 0 1.33.304 1.33.33.083 0 .501.14.501.166.248.029 1.33.307 1.33.332.054 0 .749.223.749.25.082 0 .831.223.831.25.109 0 .997.305.997.332.041 0 .207.042.374.084.167.041.333.083.374.083 0 .026.63.028.749 0 .111-.027.505-.041.836-.053.268-.01.494-.018.494-.03.389 0 2.331-.082 2.331-.082.111 0 .581-.057.581-.084.324-.079.971-.082.998-.082a3.306 3.306 0 00-.242-1.178zM76.179 64.84c-.026.302-.138.915-.167.915 0 .081-.471 1.912-.498 1.912 0 .035-.291.731-.51 1.255l-.001.001c-.125.3-.227.542-.237.573-.055.026-.277.415-.332.58-.112.083-.582.777-.582.831-.11.085-.831 1.027-.831 1.084-.167.138-1.137 1.275-1.163 1.33-.029 0-.771.735-1.51 1.466-.732.724-1.459 1.444-1.487 1.444a1.56 1.56 0 01-.33.416c0 .082-.111.305-.168.332 0 .054-.277.553-.331.582 0 .083-.138.415-.167.415 0 .024-.246.574-.533 1.215-.394.88-.864 1.932-.88 2.028-.055.026-.165.25-.165.333-.073.1-.146.202-.218.304a52.22 52.22 0 01-.2.277c-.2-.004-.308-.027-.43-.053-.046-.01-.094-.02-.15-.03-.052-.185-.445-.636-.501-.665-.027-.111-.443-.722-.498-.749-.03-.11-.888-1.58-.916-1.58 0-.056-.775-1.8-.83-1.83 0-.11-.055-.33-.084-.33v-.25c-.028 0 .221-1.247.25-1.247 0-.056.222-.748.25-.748.028-.112.304-.915.33-.915 0-.084.389-1.247.418-1.247.015-.074.11-.293.194-.488.072-.168.137-.318.137-.343.014 0 .174-.374.333-.748v-.001c.16-.375.32-.749.333-.749 0-.025.06-.189.128-.38.087-.241.188-.524.204-.618.054-.025.996-1.856.996-1.911.03 0 .167-.277.167-.333 0 0 2.301-3.962 2.329-4.072.083-.056.25-.277.25-.333.056-.026.277-.416.332-.581l.166-.084c.015-.219.136-1.307.255-2.378.123-1.099.243-2.178.243-2.276.028 0 .167-.667.167-.915.027 0 .138-.61.167-.916.027 0 .194-.832.25-1.246.027 0 .25-1.026.25-1.165.027 0 .333-1.3.333-1.413.027 0 .25-.804.25-.913.027 0 .25-.832.25-.916.028 0 .249-.776.249-.831.028 0 .25-.721.25-.832.028 0 .28-.576.333-.832.142-.001.284.028.414.084.11.614.182 1.344.258 2.106.125 1.254.258 2.592.574 3.63.028.332.138.997.167.997 0 .084.138.832.166.832 0 .056.305 1.166.332 1.166.025.146.093.447.161.749.085.376.17.752.17.83.028 0 .251.666.251.748.028 0 .25.582.25.665.055.027.443 1.081.499 1.247.026 0 .332.832.332.914.027 0 .166.388.166.5.028 0 .14 1.108.166 1.662.037.137.02.63.006 1.014a5.038 5.038 0 00-.007.48zm29.77-8.316c0 .056.746 1.026.832 1.082 0 .056 1.11 1.72 1.165 1.745 0 .033.267.5.499.903.17.297.32.559.332.593.057.029.667.997.667 1.082.054.026.666 1.109.666 1.163.025 0 .664 1.36.664 1.414.036.07.07.122.1.169.089.138.146.227.148.58l-1.495.5c-.057.081-1.276.749-1.332.749-.208.138-.721.608-.749.662a18.09 18.09 0 00-.996.999c-.082.055-.581.691-.581.748-.056.027-.777 1.386-.998 1.912-.026.194-.387 1.913-.416 1.913 0 .054-.062.69-.166.996-.028 0-.085.389-.085.583-.025 0-.082.746-.082.997-.168.54.017 2.463.333 2.744.025.025.036.039.043.047a.045.045 0 00.011.01c.009.005.023 0 .114.026a1.02 1.02 0 01.248-.333c0-.054.58-.777.666-.832 0-.028.246-.363.494-.7.251-.342.502-.685.502-.713.085-.056 1.053-1.246 1.082-1.33.085-.056.581-.666.749-.916.021 0 .19-.12.419-.28.394-.278.963-.678 1.244-.8.084 0 .831-.223.831-.25.057 0 1.333-.305 1.333-.331.082 0 .748-.14.748-.167.109.026 2.409-.224 2.409-.25.196 0 .583-.056.583-.084.305 0 .914-.054.914-.08h.999c0 .026.22.08.332.08.026.057.778.417.832.417.028.056 1.526.748 1.581.748 0 .006.01.014.026.025a.853.853 0 00.047.028.998.998 0 01.259.196c.026 0 .333 1.136.333 1.248.025 0 .248.832.248.914.027 0 .666 2.106.666 2.244.025 0 .498 1.082.498 1.164.028 0 .416.941.416.998.057.025.53 1.08.583 1.247.025 0 .666 1.274.666 1.33.017.008.04.047.074.103.077.127.206.34.424.478 0 .01.123.011.293.013.312.003.786.008.954.07l.038.187.025.12c.087.41.125.587.019 1.023-.168.029-.5.194-.5.251-.248.082-.801.36-.83.416-.057 0-.916.387-.916.416L119.3 87.01c-.013.028-.354.23-.694.433-.335.2-.669.4-.684.428-.165.055-.609.33-.663.414-.095.017-.302.093-.476.157-.135.05-.249.093-.273.093 0 .028-1.747.471-1.995.499 0 .011-.192.063-.415.124-.298.08-.651.177-.667.208-.111 0-2.329.472-2.329.5-.139 0-1.58.22-1.58.248-.36.027-1.083.14-1.083.166-.51.168-1.058.133-1.583.099h-.002l-.243-.015c0-.057-.114-.167-.168-.167-.028-.083-.359-.72-.416-.748-.054-.166-.277-.554-.332-.582 0-.082-.442-.97-.499-.996-.027-.112-.527-.973-.58-.998-.057-.168-.277-.554-.333-.58 0-.084-.443-1.054-.498-1.083-.196-.443-.694-1.385-.748-1.413-.028-.14-.473-.998-.501-.998-.025-.082-1.107-1.718-1.164-1.746-.028-.11-1.108-1.8-1.162-1.83-.028-.11-1.453-2.433-1.583-2.576-.027-.014-.367-.505-.706-.997-.34-.492-.68-.984-.707-.998-.013-.057-.367-.75-.717-1.436-.343-.672-.682-1.337-.696-1.391-.014 0-.277-.499-.54-.997-.264-.499-.527-.997-.541-.997-.028-.112-1.303-2.83-1.332-2.83 0-.11-.22-.996-.248-.996 0-.331-.223-2.244-.25-2.244 0-.138-.389-3.16-.415-3.16 0-.304-.305-2.743-.334-2.743-.028-.277-.555-4.323-.582-4.323 0-.194-.139-1.082-.167-1.082 0-.137-.304-2.243-.33-2.243 0-.084-.306-1.995-.335-1.995a6.22 6.22 0 00-.052-.383c-.103-.681-.31-2.053-.197-2.445v-.498c.012 0 .037-.09.07-.21.046-.173.11-.408.18-.538h.333c.084.11 1.137.86 1.33.915 0 .028 1.247.665 1.331.665 0 .027 1.414.888 1.496.913 0 .028 1.47.971 1.58.999a13 13 0 00.613.485c.474.367 1.05.813 1.05.845.243.067.585.344.8.52.106.084.18.145.199.145.075.054.23.206.41.383.331.325.749.736.92.78 0 .041.984 1.046 1.548 1.621l.001.002.364.372 3.244 3.74zm48.314-6.651c0 .014-.109.025-.217.036-.106.01-.211.021-.211.035 0 0-4.065.652-4.063.678-.041 0-.145.02-.249.04-.104.02-.208.041-.249.041a5.64 5.64 0 01-.404.121c-.358.1-.774.214-.926.38-.179.182-.215.547-.233.726-.006.064-.01.105-.017.105 0 .36-.055 1.08-.083 1.08 0 .047-.014.188-.03.353a8.832 8.832 0 00-.052.646c-.144.424-.285.85-.426 1.274l-.001.001-.239.72c-.055.028-.223.305-.248.415-.085.056-.307.334-.335.416-.193.056-.638.277-.664.333-.111.027-.916.526-.916.581-.248.083-.858.417-.914.5-.083 0-.721.36-.749.416-.111.027-1.054.609-1.08.665-.053 0-.776.417-.833.498-.109.029-.664.39-.664.417-.057 0-1.164.72-1.164.748-.084.027-.804.443-.832.499-.086.027-.832.553-.832.581-.054 0-.832.554-.914.665-.114.026-.889.526-.914.582-.056 0-.558.36-.586.415-.054 0-1.107.748-1.164.832-.054 0-2.354 1.747-2.409 1.83-.056 0-.611.414-.666.496-.054 0-.746.61-.746.667-.268.071-.464.248-.659.423-.134.12-.268.24-.423.325.017.483.149.753.28 1.022.083.169.165.337.218.558l1.578.082c0-.02.465-.01.738-.003h.001l.11.002.068.001s.239.04.416 0c0-.026 1.414-.082 1.744-.082 0-.028 1-.109 1.083-.083 0-.027.83-.167.996-.167 0-.027.748-.109.833-.081 0-.028.221-.085.333-.085 0-.028.72-.165.829-.165 0-.028 1.192-.333 1.247-.333 0-.028.443-.139.668-.166.028-.056.36-.166.496-.166 0-.028 1.306-.554 1.415-.582 0-.027.612-.25.916-.333.026-.055.858-.472.999-.498.027-.056.414-.277.579-.334.028-.054.583-.358.749-.414 0-.056.302-.357.583-.416 0-.055.621-.798 1.164-.916 0-.054.166-.222.25-.248.055-.084.692-.665.747-.665l.582-.666c.039-.026.195-.188.372-.371.199-.207.425-.442.542-.544 0-.054.169-.277.251-.333.025-.11.526-.747.58-.747.062-.225.129-.258.244-.314.048-.024.106-.053.175-.102.027-.042.182-.17.336-.295h.001c.15-.123.298-.245.326-.287l.221-.153c.468-.323.937-.646 1.192-1.178.04 0 .18-.185.301-.345.043-.057.084-.112.117-.153.027 0 .414-.61.414-.665 0 0 .335-.668.335-.748.054-.028.416-.942.416-.997.026 0 .165-.416.165-.5.029 0 .166-.528.166-.665.029 0 .165-.667.165-.749.03 0 .141-.996.169-1.495.027 0 .082-.887.082-1.33v-1.831a3.677 3.677 0 01-.312-.028c-.239-.028-.474-.056-.768.028zm-28.774 15.381c.022 0 .053-.026.097-.062a.826.826 0 01.322-.185c.051-.183.105-.247.189-.349l.055-.067c.027 0 .166-.276.166-.332.029 0 .138-.887.165-1.331.008-.024.028-.167 0-.167v-.665c-.027 0-.247-.694-.247-.748-.083-.056-.305-.333-.331-.415a7.988 7.988 0 01-.668-.666c-.194-.028-.636-.195-.664-.25-.11 0-.333-.055-.333-.083-.129-.04-.328-.017-.456-.003-.074.008-.124.013-.124.003l-.579.106h-.003l-.335.06c-.026.056-.609.418-.666.418-.082.109-.302.33-.33.33 0 .056-.25.444-.335.5-.024.139-.138.416-.163.416v.499c.054.026.22.36.248.498.057.028.416.692.416.749 0 0 .165.276.165.33.056.03.333.585.333.666.057.028.168.196.168.25.039.07.089.144.141.22.11.163.23.34.275.529.083.028.416.222.416.25.082 0 .746.221.746.248h.501c.008-.017.075-.067.168-.136.208-.153.546-.403.663-.613zm97.039-2.87c0 .136 1.482 2.434 1.617 2.434.035.152.116.437.212.779.242.853.584 2.06.575 2.443.135 0-1.116 9.711-4.044 12.115-.141.27-2.974 2.428-3.238 2.428-.142.27-2.828 1.617-3.227 1.617 0 .13-5.396 1.605-6.072 1.605 0 .14-1.881.405-2.822.405 0 .136-7.676.53-8.482.406 0 .087-1.063.052-1.93.023a33.557 33.557 0 00-.903-.023h-7.265c-1.944-.437-6.81-.422-10.754-.41-.623.002-1.222.004-1.784.004-.288-.752-.411-1.575-.411-2.827l2.833-.4c0-.065.304-.132.608-.2.305-.068.609-.135.609-.2.4-.13 2.422-1.487 2.422-1.616.168-.157.284-.241.37-.303.222-.16.245-.177.435-.908 1.319-1.33 1.488-4.283 1.558-5.507.02-.341.031-.548.058-.548 0-.027-.004-.12-.011-.25-.027-.548-.088-1.778.011-1.778 0-.475-.005-1.916-.012-3.902-.028-7.598-.086-23.175.012-23.175.137-.598-.064-1.374-.223-1.994-.089-.342-.165-.637-.165-.828-.038 0-.129-.142-.275-.372-.363-.573-1.07-1.688-2.17-2.473 0-.063-.384-.223-.776-.387-.41-.171-.829-.346-.829-.418l-2.821-.4c.082-.64.846-3.045 1.205-3.227h1.616c1.135.9 11.604.523 14.143 0 0-.135 2.563-.135 3.239 0 .677-.057 1.997-.115 3.3-.172 1.803-.079 3.577-.156 3.577-.228h2.01c0 .043.126.023.333-.01.385-.06 1.047-.166 1.689.01 0 .123 4.855.8 5.66.8 0 .14 2.434.81 2.834.81 0 .148 3.362 2.023 3.638 2.023 0 .141 2.157 3.098 2.422 3.24.141.816.682 2.421.805 2.421-.048.106-.224.814-.427 1.635-.314 1.27-.696 2.81-.778 2.81-.135.546-.94 1.886-1.217 2.021 0 .277-1.075 1.623-1.604 2.029-.271.4-1.352 1.21-1.617 1.21-.411.541-2.557 2.023-2.833 2.023 0 .14-.817.67-1.217.81v1.218c.806.14 2.299.776 2.434 1.04.552 0 3.239 1.247 3.239 1.376.237.06.732.34 1.286.654.68.385 1.448.82 1.94.962.355.507.431.617.531.695.101.078.226.124.686.51zm-9.316 10.923v-4.045c-.112 0-.112-.817.011-1.216-.111 0-1.205-2.434-1.205-2.846-.141 0-3.226-3.492-3.226-3.627-.277 0-2.034-1.093-2.034-1.217-1.45-.61-3.145-.597-4.909-.585-1.312.01-2.663.02-3.979-.226l-.099-.685c-.103-.712-.207-1.426-.3-2.142.399-.13 2.556-.394 2.821-.394 0-.135 2.839-1.217 3.239-1.217.31-.387.73-.67 1.205-.811.769-.84 1.537-1.686 2.304-2.531.582-.64 1.163-1.281 1.746-1.92 0-.235.129-.735.287-1.344.291-1.12.678-2.612.53-3.511-.047 0-.029-.08.004-.222.062-.27.177-.77-.004-1.383-.169-.53-.44-.941-.72-1.365-.343-.521-.699-1.062-.897-1.868-.411-.135-2.298-1.346-2.433-1.617l-1.617-.405c0-.136-1.346-.4-2.01-.4-1.469-.359-3.962-.047-6.477.4-.277.805-1.082 2.427-1.217 2.427 0 .7-.109 1.737-.218 2.771-.143 1.355-.285 2.706-.182 3.296v3.227c.057 0 .088 3.982.126 8.82.051 6.595.115 14.78.274 16.652-.141.806-.035 4.386.364 5.597.402.228.879.603 1.379.997.771.607 1.599 1.258 2.295 1.483 2.798.906 8.435-1.181 9.71-2.022 0-.13.7-.958 1.617-1.21.241-.906 1.07-1.612 1.205-1.612.123-.54.94-1.892 1.205-2.016 0-.417 1.087-3.233 1.205-3.233zm29.918-6.872c.136 0 .412.27.412.4l21.807-.388c1.275-6.849-3.168-14.256-7.277-16.99-.788-.264-2.698-1.34-2.833-1.61-.664 0-2.821-.676-2.821-.811l-4.033-.394c0 .135-2.157.394-3.25.394 0 .135-1.34.411-1.605.411 0 .13-2.422.94-3.638 1.211a2.47 2.47 0 01-1.217.8c-.265.405-1.34 1.217-1.617 1.217-.399.546-4.308 4.843-4.443 4.843 0 .27-.941 2.305-1.205 2.434 0 .406-.694 2.422-.817 2.422 0 .412-.682 4.044-.806 4.044-.482 1.646-.152 7.078.4 8.49.13 0 .805 1.622.805 2.021.142 0 .817 1.746.817 2.01.124 0 1.605 2.57 1.605 2.84 1.082.947 3.239 3.368 3.239 3.633.405 0 3.103 1.758 3.239 2.034.252 0 1.586.482 2.567.836.57.206 1.021.37 1.071.37 0-.136 4.444.675 4.444.804l6.466-.388c0-.147 1.757-.411 2.021-.411 0-.141 2.169-.817 2.434-.817 0-.065.301-.232.602-.4.302-.167.603-.335.603-.4.264 0 .805-.27.805-.405l1.229-.812c.103-.512.236-.906.365-1.29.189-.559.37-1.096.44-1.943-1.814.507-3.623 1.03-5.416 1.55l-.233.067c-1.904.553-4.937-.159-6.048-.517-.56-.081-1.526-.462-2.266-.754-.496-.196-.89-.352-.996-.352-.136-.27-.941-.81-1.217-.81-.253-.4-1.352-1.212-1.616-1.212 0 0-1.341-1.893-1.605-2.016 0-.276-1.34-2.299-1.617-2.434 0-.535-.681-2.422-.805-2.422 0-.54-.276-1.616-.411-1.616 0-.941-.67-3.633-.806-3.633-.734-2.105.429-6.414.806-7.684l.411-3.638c.265-.13 1.082-1.482 1.217-2.023.129 0 1.469-1.352 2.01-2.022.279-.192.483-.227.678-.26.271-.047.526-.091.939-.545 1.722-.035 3.215-.047 4.044.805 1.725.437 2.774 2.466 3.295 3.476.166.32.279.539.343.569 0 .394.265 1.217.4 1.217-.135.393-.135 1.205 0 1.205.392 1.34.128 3.432.022 4.275l-.022.175c-.705.035-1.45.078-2.223.123-2.336.137-4.932.288-7.476.27-.17.87-.688 2.323-1.217 2.828v1.223zm103.487-12.128c-.975-1.475-3.262-4.015-5.26-4.45 0-.254-.916-.8-1.499-1.147l-.106-.064c0-.14-1.617-.681-2.422-.817 0-.13-3.239-.676-4.855-.811-.276-.135-.817-.135-.817 0h-3.227c0 .141-1.616.688-2.434.811 0 .141-1.075.682-1.616.817 0 .13-1.61.8-2.01.8 0 .135-.688.97-1.617 1.217-.311 1.105-1.757 2.028-2.022 2.028-.141.4-1.493 2.022-2.022 2.422 0 .264-1.081 2.422-1.216 2.422l-.4 1.616c-.141 0-.682 1.893-.805 2.828-.153 0-.682 2.157-.817 3.227-.136 0-.136 1.623 0 2.434.022.516.035 1.007.049 1.478.057 2.044.104 3.707.768 5.394.129 0 .67 1.346.805 2.028.107.05.255.279.45.578.284.439.667 1.03 1.166 1.438.459.447 1.658 1.817 2.022 3.228.553.16.782.185.909.312.126.126.153.352.296.904.948.25 1.752.793 2.526 1.315.378.255.748.505 1.125.714.264 0 1.069.535 1.205.8.405 0 2.022.681 2.022.816.67 0 2.022.265 2.022.412.94 0 2.821.258 2.821.388.682.135 2.034.135 2.034 0h1.604c0-.065.302-.13.603-.194.301-.065.602-.13.602-.194.953 0 2.834-.288 2.834-.412l6.06-1.61c.18-.635.438-1.11.703-1.595.357-.656.726-1.331.925-2.45-1.386.084-2.537.332-3.7.582-1.527.329-3.074.662-5.199.635-.682 0-2.034-.276-2.034-.412-.805-.129-2.41-.676-2.41-.805-.411 0-1.493-.54-1.616-.811-.541-.124-1.899-.935-2.034-1.211l-.94-.807c-.627-.54-1.254-1.08-1.882-1.61 0-.41-.54-1.492-.805-1.622 0-.264-.952-2.292-1.217-2.422 0-.4-.276-1.222-.399-1.222.129-.4-.277-2.01-.412-2.01v-2.029c-.852-2.733-.3-6.549.412-8.888 0-.676.264-2.022.399-2.022.139-.431.281-.855.422-1.277.129-.384.258-.768.384-1.157.147 0 .411-.535.411-.806.265-.129.805-.946.805-1.21.186-.239.395-.324.622-.416.304-.125.641-.262.995-.801.658-.026 1.186-.107 1.66-.18.947-.147 1.674-.26 2.783.18 0 .07.311.243.619.413.3.166.598.331.598.398l1.217.811c0 .276.529 1.082.794 1.211.135.67.952 2.287 1.228 2.428 0 .676.265 2.022.4 2.022.023 1.546-.036 3.057-.4 4.045-3.491.664-5.267.805-9.299.393-.182.87-.699 2.323-1.217 2.828 0 .411.277 1.223.412 1.223 0 .129.746.011.805 0h16.57c0 .129 3.527.17 4.444 0 .016-.22.044-.486.077-.786.134-1.248.33-3.072-.077-4.476-.124 0-.4-1.616-.4-2.422-.135 0-.4-.534-.4-.81-.264-.13-1.081-1.753-1.205-2.434-.276-.13-.817-.935-.817-1.206zM306.606 86.64l4.844-.405c-.03-2.323-.39-2.457-1.63-2.92-.238-.088-.509-.189-.816-.32-.388 0-1.205-.27-1.205-.4-.372-.29-.562-.545-.742-.785-.212-.284-.41-.548-.874-.83-.088-1.249-.186-2.5-.283-3.757l-.117-1.505c.135-.394.135-1.205 0-1.205-.131-.873-.054-2.019-.003-2.79.034-.505.057-.849.003-.849-.177-.859-.071-1.774-.008-2.32.035-.305.057-.496.008-.496-.158-1.07 0-5.678 0-5.678.01-.227-.002-.52-.013-.82-.018-.448-.036-.912.013-1.197.055 0 .037-.127.008-.334-.042-.303-.109-.777-.008-1.276 0 0 .135-1.217 0-1.217-.06-.589-.127-1.18-.195-1.773-.07-.62-.141-1.243-.204-1.866-.923-2.557-3.633-5.45-6.466-6.06-.494-.442-3.615-1.165-4.855-.812 0 .135-3.239.946-4.844 1.217-.135.264-2.028 1.34-2.833 1.61-.135.277-.94.812-1.217.812 0 .14-.711.688-1.616.811l-.388-4.039c-1.367.287-2.737.627-4.125.97-3.192.79-6.478 1.604-10.029 1.858-.153.394-.682 1.205-.805 1.205 0 .26-.168.795-.29 1.181-.068.218-.122.389-.122.436.444.259.944.234 1.468.208.71-.036 1.463-.073 2.171.597.826.507 1.03.596 1.11.75.083.16.031.391.406 1.237.265.141.506 2.063.506 2.063 0 .812.276 2.422.411 2.422v5.655c-.135 0-.135 4.456 0 4.456a805.393 805.393 0 00-.411 7.272l-.806 3.633c-.135 0-.399.54-.399.817a4.909 4.909 0 00-1.617 1.205c-.535 0-1.616.27-1.616.406H267.8c0 .13-.264.406-.4.406.041 1.053.157 1.363.393 1.997l.007.019c.257.051.668.103 1.079.154.672.084 1.343.168 1.343.251h2.833c0-.135 4.444-.135 4.444 0 1.216-.135 3.638-.135 3.638 0h4.044a14.987 14.987 0 002.822-1.205v-1.216c-.213-.382-.924-.473-1.618-.561-.459-.058-.911-.116-1.204-.257 0-.135-.529-.4-.805-.4-.088-.051-.153-.147-.228-.258-.121-.178-.271-.398-.589-.547-.76-4.143-.765-13.533-.768-18.233-.001-1.702-.001-2.788-.037-2.788-.1-.494.576-3.363.805-3.64.517-2.11 6.989-5.719 9.299-3.232.872.239 1.309.68 1.762 1.139.304.307.616.622 1.071.889.068 1.258.359 2.174.64 3.059.06.19.12.378.177.568v5.667c-.147 0 0 1.21 0 1.21.078.469.031 1.36-.008 2.088-.033.635-.061 1.146.008 1.146.139.592.069 3.048.013 5.026-.041 1.458-.075 2.657-.013 2.657-.276 2.692-.553 5.39-.817 8.077.263.167.384.236.48.33.097.096.169.216.337.487h5.649c0-.135 1.075-.135 1.616 0 0-.135 2.833-.135 2.833 0zm75.185-29.498v-9.306l-5.255-.388v-.411h-5.66v.411c-.025 0-.108-.027-.237-.068-.551-.177-1.93-.62-3.002-.343 0 .073-.318.05-.694.022-.319-.023-.68-.05-.923-.022 0 .135-.54.411-.805.411 0 .135-1.616.67-2.422.806 0 .135-.552.405-.817.405 0 .124-.805.4-1.205.4-.184.262-.362.532-.543.805-.09.136-.181.274-.274.412l-2.833 2.016c0 .406-1.07 1.61-1.205 1.61-.129.818-.682 2.434-.805 2.434 0 .394-.265 1.206-.4 1.206l.4 5.26c.505.436 1.205 1.753 1.205 2.023.94.812 1.885 1.62 2.833 2.422.135.265 1.746 1.082 2.422 1.205 0 .135.541.412.805.412 0 .135 1.616.94 2.422 1.21 0 .13 2.433.941 3.638 1.206.124.276 2.434 1.222 2.833 1.222.13.27 1.746 1.217 2.022 1.217 0 .136.806.676 1.217.806.104.414.316.83.534 1.258.46.901.947 1.856.512 2.968 0 .335-.06.624-.12.913-.06.291-.121.583-.121.922-.27.2-.379.5-.487.799-.109.3-.218.6-.488.8-.066.214-.303.32-.536.424-.226.102-.45.201-.511.398-1.769.718-5.772 2.046-8.082 1.217 0-.14-1.358-.682-2.022-.817-.141-.264-1.493-1.082-2.022-1.205 0-.411-.817-1.481-1.217-1.616l-2.833-6.061h-1.205v.4l-1.205.405c-.135 2.01-.364 10.775 0 11.728h6.466c0 .13 1.346.13 2.022 0 0 .135 8.476.276 10.104-.412.168.082.994-.104 1.644-.25.373-.084.689-.155.79-.155 0-.13.805-.406 1.205-.406 0-.124 1.604-.935 2.433-1.205 0-.06.448-.377 1.057-.809.655-.464 1.497-1.062 2.17-1.613.347-1.51 1.887-3.639 2.022-3.639 0-.535.265-1.628.4-1.628.417-1.329-.041-5.626-.4-6.455-.135 0-.411-.54-.411-.817-.124 0-1.205-1.74-1.205-2.016l-.182-.153c-.746-.626-1.495-1.255-2.24-1.87-.27 0-1.352-.81-1.616-1.216l-2.022-.4c0-.135-1.623-.806-2.022-.806 0-.135-2.434-.946-3.639-1.216 0-.141-1.881-.812-2.422-.812 0-.129-1.622-.81-2.022-.81-.135-.271-1.205-.812-1.616-.812a4.352 4.352 0 00-1.616-2.022c0-1.482.264-4.444.399-4.444.35-.492.781-.849 1.208-1.202.441-.364.877-.725 1.214-1.226l1.069-.15c.585-.084 1.172-.167 1.764-.244 0-.135.688-.024.805 0h2.422l3.65 2.016c.339.796.751 1.478 1.158 2.153.694 1.15 1.375 2.28 1.664 3.914.806-.183 1.349-.467 1.915-.763.287-.15.581-.303.918-.448zm28.284-4.856c1.529 1.429 3.045 2.898 3.228 5.661 1.577-.03 1.684-.1 2.151-.404.159-.104.36-.235.676-.401 0-.811.229-7.977.411-8.9-.5-.187-1.212-.357-1.795-.496-.575-.138-1.026-.245-1.026-.31-.423.13-1.229.13-1.229 0-.264 0-.805-.276-.805-.411-.817.135-2.422.135-2.422 0h-2.022v.411c-.027 0-.119-.005-.25-.012-.549-.03-1.783-.097-1.783.012-.224.024-.568 0-.881-.023-.386-.027-.724-.051-.724.023-.952 0-2.833.27-2.833.394-.676 0-2.022.27-2.022.406-.4 0-1.482.535-1.617.811-.664.13-2.286.947-2.421 1.217-.753.676-1.699 1.31-2.834 1.61-.117.4-.67 1.212-.805 1.212 0 .27-.541 1.075-.817 1.21-.129.812-.67 2.423-.805 2.423-.4 1.24-.323 4.385 0 5.26.135 0 .411.536.411.812.13 0 .67 1.352.806 2.022.258.124 2.157 2.017 2.821 2.828.613.09 1.182.37 1.628.8 0 .14 1.605.687 2.422.822 0 .13 1.075.676 1.605.806 0 .13.817.405 1.216.405 0 .13 2.022.8 2.434.8 0 .135 1.34.547 1.604.411 0 .136.541.406.806.406.264.4 1.622 1.217 2.033 1.217 0 .123.541.4.806.4 0 .129.817.94 1.216 1.205 0 .27.541.805.806.805l.4 2.834c-.136 0-.4 1.346-.4 2.022l-2.022 2.422c-.535.14-1.617.676-1.617.811-.634.086-1.259.178-1.883.269l-.938.137c0 .129-.805.129-1.217 0h-2.833c0-.136-.529-.406-.805-.406 0-.135-.805-.406-1.205-.406-.276-.4-1.352-1.205-1.628-1.205a274.027 274.027 0 00-1.954-2.806l-.868-1.238c-.335-1.063-.693-2.109-1.05-3.152l-.167-.487c-.673-.492-1.378.081-2.073.646-.252.204-.501.408-.748.559a85.922 85.922 0 01-.115 2.695c-.136 2.628-.292 5.65.115 6.205a6.748 6.748 0 00.4 2.434c3.061-.01 6.135.165 8.523.3.569.033 1.099.063 1.581.088.27.14 4.691-.294 5.267-.388 0 .135 4.843-.288 4.843-.412.264 0 .805-.27.805-.405.676-.129 1.35-.264 2.022-.406.141-.264 2.104-1.781 3.239-2.016.311-1.067.959-1.732 1.635-2.426.129-.132.259-.265.387-.402.137-.07.426-.393.69-.688.245-.274.467-.523.527-.523 0-.27.264-.811.399-.811 0-.682.277-2.034.4-2.034.335-.952.506-4.844 0-5.655-.03 0-.197-.241-.456-.616-.851-1.234-2.703-3.916-3.988-4.222 0-.276-1.075-1.088-1.604-1.223-.147-.27-1.229-.805-1.628-.805 0-.135-2.158-1.076-2.822-1.205 0-.136-2.704-.947-4.05-1.217-.123-.265-1.746-.811-2.41-.811 0-.124-2.169-1.217-2.433-1.217 0-.13-1.346-1.476-2.022-2.017 0-.529-.265-1.61-.4-1.61l.4-3.64c.893-.264 1.616-1.08 1.616-1.216.805-.264 1.617-.535 2.422-.811 0-.13 2.974-.077 3.638 0 0-.13 2.299.547 2.422.811.412 0 1.481.535 1.616.811zm44.867.406c-.847-.858-2.422-2.557-2.422-2.834-.905-.129-2.433-1.081-2.439-1.21-.265 0-2.011-.682-2.011-.818-1.757-.13-5.26-.676-5.26-.811-.357 0-1.2.115-1.997.223-.712.097-1.386.189-1.642.189 0 .135-2.563.805-3.227.805-.141.264-2.698 1.475-3.25 1.61 0 .089-.375.415-.897.87-1.11.966-2.888 2.513-3.136 3.58-1.207.347-1.588.972-1.812 1.34-.084.137-.146.239-.221.277 0 .406-.529 1.488-.794 1.611 0 .406-.288 1.217-.411 1.217 0 .405-.67 2.022-.806 2.022-.141 1.481-.681 4.438-.817 4.438 0 .547-.264 1.623-.399 1.623.194 1.244.393 2.489.591 3.734.21 1.316.42 2.633.625 3.95.142 0 .806 1.616.806 2.027.387.308.668.73.805 1.205.141 0 .682 1.07.817 1.617.39.308.672.732.805 1.21l1.217.806 2.022 2.428c.477.138.898.422 1.205.811 1.217.406 3.65 1.482 3.65 1.611.523.141 1.605.676 1.605.823.343 0 .694.09 1.042.181.344.09.685.178 1.015.178l.215.067c1.074.335 2.444.764 4.205.367 0-.043.225-.015.579.03.746.093 2.067.258 3.048-.03l8.494-2.815c.2-.609.404-1.216.608-1.823.204-.607.409-1.213.608-1.822v-.4c-1.639.18-3.145.674-4.588 1.148a56.48 56.48 0 01-1.472.469h-2.433c-.268-.06-.417-.029-.57.004-.162.034-.329.069-.647-.004l-.745-.25c-1.767-.593-3.532-1.185-5.315-1.772-.259-.406-1.34-1.211-1.605-1.211l-1.228-1.617c-.064 0-.275-.241-.509-.51-.261-.298-.55-.63-.696-.695l-.4-1.217c-.141 0-.682-1.076-.805-1.61-.135 0-.4-.553-.4-.818-.135 0-.4-1.352-.4-2.022a21.16 21.16 0 010-13.738c0-.54.265-1.628.4-1.628 0-.259.265-.8.4-.8 0-.27.805-1.346 1.205-1.616 0-.265.517-1.094.917-1.217.063-.14.211-.279.358-.417.138-.13.276-.26.341-.389.277 0 .817-.27.817-.405 1.299-.8 4.926.858 5.249 1.217 2.41 1.522 3.362 6.354 3.239 10.499-2.572.489-6.288.448-9.504.413l-.206-.002c-.145.568-.341.992-.533 1.407-.319.693-.628 1.361-.672 2.638 1.743-.105 7.799-.04 10.483-.012.636.007 1.083.012 1.237.012.208-.097 2.838-.049 4.478-.019.546.01.982.019 1.183.019 0-.09.593-.055 1.087-.025.214.013.409.025.529.025 0 .129 2.146.129 3.227 0 .794-4.21-.746-7.96-2.41-10.911 0-.276-.54-1.087-.817-1.21 0-.271-1.064-1.623-1.616-2.023z" fill="#fff"/></svg>
